<mxfile host="Electron" agent="Mozilla/5.0 (Windows NT 10.0; Win64; x64) AppleWebKit/537.36 (KHTML, like Gecko) draw.io/26.2.2 Chrome/134.0.6998.178 Electron/35.1.2 Safari/537.36" version="26.2.2">
  <diagram name="Page-1" id="-7w8UN12Knx-7GNGdpiY">
    <mxGraphModel dx="2597" dy="841" grid="1" gridSize="10" guides="1" tooltips="1" connect="1" arrows="1" fold="1" page="1" pageScale="1" pageWidth="1169" pageHeight="827" math="0" shadow="0">
      <root>
        <mxCell id="0" />
        <mxCell id="1" parent="0" />
        <mxCell id="1BOe9CULZjDm7H3o84Om-1" value="AWS Cloud" style="points=[[0,0],[0.25,0],[0.5,0],[0.75,0],[1,0],[1,0.25],[1,0.5],[1,0.75],[1,1],[0.75,1],[0.5,1],[0.25,1],[0,1],[0,0.75],[0,0.5],[0,0.25]];outlineConnect=0;gradientColor=none;html=1;whiteSpace=wrap;fontSize=12;fontStyle=0;container=1;pointerEvents=0;collapsible=0;recursiveResize=0;shape=mxgraph.aws4.group;grIcon=mxgraph.aws4.group_aws_cloud_alt;strokeColor=#232F3E;fillColor=none;verticalAlign=top;align=left;spacingLeft=30;fontColor=#232F3E;dashed=0;" parent="1" vertex="1">
          <mxGeometry x="-20" y="50" width="1080" height="600" as="geometry" />
        </mxCell>
        <mxCell id="1BOe9CULZjDm7H3o84Om-16" value="" style="group" parent="1BOe9CULZjDm7H3o84Om-1" vertex="1" connectable="0">
          <mxGeometry x="440" y="40" width="580" height="498" as="geometry" />
        </mxCell>
        <mxCell id="1BOe9CULZjDm7H3o84Om-3" value="VPC" style="sketch=0;outlineConnect=0;gradientColor=none;html=1;whiteSpace=wrap;fontSize=12;fontStyle=0;shape=mxgraph.aws4.group;grIcon=mxgraph.aws4.group_vpc;strokeColor=#879196;fillColor=none;verticalAlign=top;align=left;spacingLeft=30;fontColor=#879196;dashed=0;" parent="1BOe9CULZjDm7H3o84Om-16" vertex="1">
          <mxGeometry width="580" height="460" as="geometry" />
        </mxCell>
        <mxCell id="1BOe9CULZjDm7H3o84Om-34" style="edgeStyle=orthogonalEdgeStyle;rounded=0;orthogonalLoop=1;jettySize=auto;html=1;" parent="1BOe9CULZjDm7H3o84Om-16" source="1BOe9CULZjDm7H3o84Om-4" target="1BOe9CULZjDm7H3o84Om-29" edge="1">
          <mxGeometry relative="1" as="geometry" />
        </mxCell>
        <mxCell id="1BOe9CULZjDm7H3o84Om-4" value="Internet Gateway" style="sketch=0;outlineConnect=0;fontColor=#232F3E;gradientColor=none;fillColor=#8C4FFF;strokeColor=none;dashed=0;verticalLabelPosition=bottom;verticalAlign=top;align=center;html=1;fontSize=12;fontStyle=0;aspect=fixed;pointerEvents=1;shape=mxgraph.aws4.internet_gateway;" parent="1BOe9CULZjDm7H3o84Om-16" vertex="1">
          <mxGeometry x="251" y="420" width="78" height="78" as="geometry" />
        </mxCell>
        <mxCell id="1BOe9CULZjDm7H3o84Om-13" value="Public subnet" style="points=[[0,0],[0.25,0],[0.5,0],[0.75,0],[1,0],[1,0.25],[1,0.5],[1,0.75],[1,1],[0.75,1],[0.5,1],[0.25,1],[0,1],[0,0.75],[0,0.5],[0,0.25]];outlineConnect=0;gradientColor=none;html=1;whiteSpace=wrap;fontSize=12;fontStyle=0;container=1;pointerEvents=0;collapsible=0;recursiveResize=0;shape=mxgraph.aws4.group;grIcon=mxgraph.aws4.group_security_group;grStroke=0;strokeColor=#7AA116;fillColor=#F2F6E8;verticalAlign=top;align=left;spacingLeft=30;fontColor=#248814;dashed=0;" parent="1BOe9CULZjDm7H3o84Om-16" vertex="1">
          <mxGeometry x="25" y="80" width="220" height="330" as="geometry" />
        </mxCell>
        <mxCell id="1BOe9CULZjDm7H3o84Om-14" value="Private subnet" style="points=[[0,0],[0.25,0],[0.5,0],[0.75,0],[1,0],[1,0.25],[1,0.5],[1,0.75],[1,1],[0.75,1],[0.5,1],[0.25,1],[0,1],[0,0.75],[0,0.5],[0,0.25]];outlineConnect=0;gradientColor=none;html=1;whiteSpace=wrap;fontSize=12;fontStyle=0;container=1;pointerEvents=0;collapsible=0;recursiveResize=0;shape=mxgraph.aws4.group;grIcon=mxgraph.aws4.group_security_group;grStroke=0;strokeColor=#00A4A6;fillColor=#E6F6F7;verticalAlign=top;align=left;spacingLeft=30;fontColor=#147EBA;dashed=0;" parent="1BOe9CULZjDm7H3o84Om-16" vertex="1">
          <mxGeometry x="335" y="80" width="220" height="330" as="geometry" />
        </mxCell>
        <mxCell id="1BOe9CULZjDm7H3o84Om-15" value="MySQL RDS" style="sketch=0;points=[[0,0,0],[0.25,0,0],[0.5,0,0],[0.75,0,0],[1,0,0],[0,1,0],[0.25,1,0],[0.5,1,0],[0.75,1,0],[1,1,0],[0,0.25,0],[0,0.5,0],[0,0.75,0],[1,0.25,0],[1,0.5,0],[1,0.75,0]];outlineConnect=0;fontColor=#232F3E;fillColor=#FF3333;strokeColor=#ffffff;dashed=0;verticalLabelPosition=bottom;verticalAlign=top;align=center;html=1;fontSize=12;fontStyle=0;aspect=fixed;shape=mxgraph.aws4.resourceIcon;resIcon=mxgraph.aws4.rds;" parent="1BOe9CULZjDm7H3o84Om-14" vertex="1">
          <mxGeometry x="71" y="126" width="78" height="78" as="geometry" />
        </mxCell>
        <mxCell id="1BOe9CULZjDm7H3o84Om-39" style="edgeStyle=orthogonalEdgeStyle;rounded=0;orthogonalLoop=1;jettySize=auto;html=1;startArrow=blockThin;startFill=1;" parent="1BOe9CULZjDm7H3o84Om-16" source="1BOe9CULZjDm7H3o84Om-21" target="1BOe9CULZjDm7H3o84Om-15" edge="1">
          <mxGeometry relative="1" as="geometry" />
        </mxCell>
        <mxCell id="1BOe9CULZjDm7H3o84Om-21" value="ECS Container" style="outlineConnect=0;dashed=0;verticalLabelPosition=bottom;verticalAlign=top;align=center;html=1;shape=mxgraph.aws3.ec2_compute_container_3;fillColor=#F58534;gradientColor=none;" parent="1BOe9CULZjDm7H3o84Om-16" vertex="1">
          <mxGeometry x="105" y="306" width="60" height="34.5" as="geometry" />
        </mxCell>
        <mxCell id="1BOe9CULZjDm7H3o84Om-38" style="edgeStyle=orthogonalEdgeStyle;rounded=0;orthogonalLoop=1;jettySize=auto;html=1;startArrow=blockThin;startFill=1;" parent="1BOe9CULZjDm7H3o84Om-16" source="1BOe9CULZjDm7H3o84Om-22" target="1BOe9CULZjDm7H3o84Om-15" edge="1">
          <mxGeometry relative="1" as="geometry" />
        </mxCell>
        <mxCell id="1BOe9CULZjDm7H3o84Om-22" value="ECS Container" style="outlineConnect=0;dashed=0;verticalLabelPosition=bottom;verticalAlign=top;align=center;html=1;shape=mxgraph.aws3.ec2_compute_container_3;fillColor=#F58534;gradientColor=none;" parent="1BOe9CULZjDm7H3o84Om-16" vertex="1">
          <mxGeometry x="105" y="150" width="60" height="34.5" as="geometry" />
        </mxCell>
        <mxCell id="1BOe9CULZjDm7H3o84Om-36" style="edgeStyle=orthogonalEdgeStyle;rounded=0;orthogonalLoop=1;jettySize=auto;html=1;" parent="1BOe9CULZjDm7H3o84Om-16" source="1BOe9CULZjDm7H3o84Om-29" target="1BOe9CULZjDm7H3o84Om-21" edge="1">
          <mxGeometry relative="1" as="geometry" />
        </mxCell>
        <mxCell id="1BOe9CULZjDm7H3o84Om-29" value="ALB" style="outlineConnect=0;dashed=0;verticalLabelPosition=bottom;verticalAlign=top;align=center;html=1;shape=mxgraph.aws3.application_load_balancer;fillColor=#F58534;gradientColor=none;" parent="1BOe9CULZjDm7H3o84Om-16" vertex="1">
          <mxGeometry x="255.5" y="213" width="69" height="72" as="geometry" />
        </mxCell>
        <mxCell id="1BOe9CULZjDm7H3o84Om-35" style="edgeStyle=orthogonalEdgeStyle;rounded=0;orthogonalLoop=1;jettySize=auto;html=1;entryX=0.5;entryY=1;entryDx=0;entryDy=0;entryPerimeter=0;startArrow=blockThin;startFill=1;" parent="1BOe9CULZjDm7H3o84Om-16" source="1BOe9CULZjDm7H3o84Om-29" target="1BOe9CULZjDm7H3o84Om-22" edge="1">
          <mxGeometry relative="1" as="geometry" />
        </mxCell>
        <mxCell id="1BOe9CULZjDm7H3o84Om-42" style="edgeStyle=orthogonalEdgeStyle;rounded=0;orthogonalLoop=1;jettySize=auto;html=1;" parent="1BOe9CULZjDm7H3o84Om-1" source="1BOe9CULZjDm7H3o84Om-17" target="1BOe9CULZjDm7H3o84Om-26" edge="1">
          <mxGeometry relative="1" as="geometry">
            <Array as="points">
              <mxPoint x="219" y="150" />
              <mxPoint x="119" y="150" />
            </Array>
          </mxGeometry>
        </mxCell>
        <mxCell id="1BOe9CULZjDm7H3o84Om-17" value="ECR" style="sketch=0;points=[[0,0,0],[0.25,0,0],[0.5,0,0],[0.75,0,0],[1,0,0],[0,1,0],[0.25,1,0],[0.5,1,0],[0.75,1,0],[1,1,0],[0,0.25,0],[0,0.5,0],[0,0.75,0],[1,0.25,0],[1,0.5,0],[1,0.75,0]];outlineConnect=0;fontColor=#232F3E;fillColor=#ED7100;strokeColor=#ffffff;dashed=0;verticalLabelPosition=bottom;verticalAlign=top;align=center;html=1;fontSize=12;fontStyle=0;aspect=fixed;shape=mxgraph.aws4.resourceIcon;resIcon=mxgraph.aws4.ecr;" parent="1BOe9CULZjDm7H3o84Om-1" vertex="1">
          <mxGeometry x="180" y="40" width="78" height="78" as="geometry" />
        </mxCell>
        <mxCell id="1BOe9CULZjDm7H3o84Om-37" style="edgeStyle=orthogonalEdgeStyle;rounded=0;orthogonalLoop=1;jettySize=auto;html=1;" parent="1BOe9CULZjDm7H3o84Om-1" source="1BOe9CULZjDm7H3o84Om-23" target="1BOe9CULZjDm7H3o84Om-13" edge="1">
          <mxGeometry relative="1" as="geometry" />
        </mxCell>
        <mxCell id="1BOe9CULZjDm7H3o84Om-47" style="edgeStyle=orthogonalEdgeStyle;rounded=0;orthogonalLoop=1;jettySize=auto;html=1;" parent="1BOe9CULZjDm7H3o84Om-1" source="1BOe9CULZjDm7H3o84Om-23" target="1BOe9CULZjDm7H3o84Om-17" edge="1">
          <mxGeometry relative="1" as="geometry" />
        </mxCell>
        <mxCell id="1BOe9CULZjDm7H3o84Om-23" value="ECS Fargate" style="sketch=0;points=[[0,0,0],[0.25,0,0],[0.5,0,0],[0.75,0,0],[1,0,0],[0,1,0],[0.25,1,0],[0.5,1,0],[0.75,1,0],[1,1,0],[0,0.25,0],[0,0.5,0],[0,0.75,0],[1,0.25,0],[1,0.5,0],[1,0.75,0]];outlineConnect=0;fontColor=#232F3E;fillColor=#ED7100;strokeColor=#ffffff;dashed=0;verticalLabelPosition=bottom;verticalAlign=top;align=center;html=1;fontSize=12;fontStyle=0;aspect=fixed;shape=mxgraph.aws4.resourceIcon;resIcon=mxgraph.aws4.fargate;" parent="1BOe9CULZjDm7H3o84Om-1" vertex="1">
          <mxGeometry x="300" y="40" width="78" height="78" as="geometry" />
        </mxCell>
        <mxCell id="1BOe9CULZjDm7H3o84Om-40" style="edgeStyle=orthogonalEdgeStyle;rounded=0;orthogonalLoop=1;jettySize=auto;html=1;" parent="1BOe9CULZjDm7H3o84Om-1" source="1BOe9CULZjDm7H3o84Om-25" target="1BOe9CULZjDm7H3o84Om-26" edge="1">
          <mxGeometry relative="1" as="geometry" />
        </mxCell>
        <mxCell id="1BOe9CULZjDm7H3o84Om-25" value="CodeCommit" style="sketch=0;points=[[0,0,0],[0.25,0,0],[0.5,0,0],[0.75,0,0],[1,0,0],[0,1,0],[0.25,1,0],[0.5,1,0],[0.75,1,0],[1,1,0],[0,0.25,0],[0,0.5,0],[0,0.75,0],[1,0.25,0],[1,0.5,0],[1,0.75,0]];outlineConnect=0;fontColor=#232F3E;fillColor=light-dark(#4867E9,#4867E9);strokeColor=#ffffff;dashed=0;verticalLabelPosition=bottom;verticalAlign=top;align=center;html=1;fontSize=12;fontStyle=0;aspect=fixed;shape=mxgraph.aws4.resourceIcon;resIcon=mxgraph.aws4.codecommit;" parent="1BOe9CULZjDm7H3o84Om-1" vertex="1">
          <mxGeometry x="80" y="41" width="78" height="78" as="geometry" />
        </mxCell>
        <mxCell id="1BOe9CULZjDm7H3o84Om-43" style="edgeStyle=orthogonalEdgeStyle;rounded=0;orthogonalLoop=1;jettySize=auto;html=1;" parent="1BOe9CULZjDm7H3o84Om-1" source="1BOe9CULZjDm7H3o84Om-28" target="1BOe9CULZjDm7H3o84Om-23" edge="1">
          <mxGeometry relative="1" as="geometry" />
        </mxCell>
        <mxCell id="1BOe9CULZjDm7H3o84Om-28" value="CodeDeploy" style="sketch=0;points=[[0,0,0],[0.25,0,0],[0.5,0,0],[0.75,0,0],[1,0,0],[0,1,0],[0.25,1,0],[0.5,1,0],[0.75,1,0],[1,1,0],[0,0.25,0],[0,0.5,0],[0,0.75,0],[1,0.25,0],[1,0.5,0],[1,0.75,0]];outlineConnect=0;fontColor=#232F3E;fillColor=#4867E9;strokeColor=#ffffff;dashed=0;verticalLabelPosition=bottom;verticalAlign=top;align=center;html=1;fontSize=12;fontStyle=0;aspect=fixed;shape=mxgraph.aws4.resourceIcon;resIcon=mxgraph.aws4.codedeploy;" parent="1BOe9CULZjDm7H3o84Om-1" vertex="1">
          <mxGeometry x="80" y="370" width="78" height="78" as="geometry" />
        </mxCell>
        <mxCell id="1BOe9CULZjDm7H3o84Om-41" style="edgeStyle=orthogonalEdgeStyle;rounded=0;orthogonalLoop=1;jettySize=auto;html=1;" parent="1BOe9CULZjDm7H3o84Om-1" source="1BOe9CULZjDm7H3o84Om-26" target="1BOe9CULZjDm7H3o84Om-28" edge="1">
          <mxGeometry relative="1" as="geometry" />
        </mxCell>
        <mxCell id="1BOe9CULZjDm7H3o84Om-26" value="CodePipeline" style="sketch=0;points=[[0,0,0],[0.25,0,0],[0.5,0,0],[0.75,0,0],[1,0,0],[0,1,0],[0.25,1,0],[0.5,1,0],[0.75,1,0],[1,1,0],[0,0.25,0],[0,0.5,0],[0,0.75,0],[1,0.25,0],[1,0.5,0],[1,0.75,0]];outlineConnect=0;fontColor=#232F3E;fillColor=#4867E9;strokeColor=#ffffff;dashed=0;verticalLabelPosition=bottom;verticalAlign=top;align=center;html=1;fontSize=12;fontStyle=0;aspect=fixed;shape=mxgraph.aws4.resourceIcon;resIcon=mxgraph.aws4.codepipeline;" parent="1BOe9CULZjDm7H3o84Om-1" vertex="1">
          <mxGeometry x="80" y="200" width="78" height="78" as="geometry" />
        </mxCell>
        <mxCell id="Crx_YLCkhyTZkr8fELab-3" style="edgeStyle=orthogonalEdgeStyle;rounded=0;orthogonalLoop=1;jettySize=auto;html=1;startArrow=blockThin;startFill=1;" edge="1" parent="1BOe9CULZjDm7H3o84Om-1" source="Crx_YLCkhyTZkr8fELab-2" target="1BOe9CULZjDm7H3o84Om-26">
          <mxGeometry relative="1" as="geometry" />
        </mxCell>
        <mxCell id="Crx_YLCkhyTZkr8fELab-2" value="CloudWatch Logs" style="sketch=0;points=[[0,0,0],[0.25,0,0],[0.5,0,0],[0.75,0,0],[1,0,0],[0,1,0],[0.25,1,0],[0.5,1,0],[0.75,1,0],[1,1,0],[0,0.25,0],[0,0.5,0],[0,0.75,0],[1,0.25,0],[1,0.5,0],[1,0.75,0]];points=[[0,0,0],[0.25,0,0],[0.5,0,0],[0.75,0,0],[1,0,0],[0,1,0],[0.25,1,0],[0.5,1,0],[0.75,1,0],[1,1,0],[0,0.25,0],[0,0.5,0],[0,0.75,0],[1,0.25,0],[1,0.5,0],[1,0.75,0]];outlineConnect=0;fontColor=#232F3E;fillColor=#E7157B;strokeColor=#ffffff;dashed=0;verticalLabelPosition=bottom;verticalAlign=top;align=center;html=1;fontSize=12;fontStyle=0;aspect=fixed;shape=mxgraph.aws4.resourceIcon;resIcon=mxgraph.aws4.cloudwatch_2;" vertex="1" parent="1BOe9CULZjDm7H3o84Om-1">
          <mxGeometry x="210" y="200" width="78" height="78" as="geometry" />
        </mxCell>
        <mxCell id="Crx_YLCkhyTZkr8fELab-4" value="Cloud9" style="sketch=0;points=[[0,0,0],[0.25,0,0],[0.5,0,0],[0.75,0,0],[1,0,0],[0,1,0],[0.25,1,0],[0.5,1,0],[0.75,1,0],[1,1,0],[0,0.25,0],[0,0.5,0],[0,0.75,0],[1,0.25,0],[1,0.5,0],[1,0.75,0]];outlineConnect=0;fontColor=#232F3E;fillColor=light-dark(#4867E9,#4867E9);strokeColor=#ffffff;dashed=0;verticalLabelPosition=bottom;verticalAlign=top;align=center;html=1;fontSize=12;fontStyle=0;aspect=fixed;shape=mxgraph.aws4.resourceIcon;resIcon=mxgraph.aws4.cloud9;" vertex="1" parent="1BOe9CULZjDm7H3o84Om-1">
          <mxGeometry x="350" y="200" width="78" height="78" as="geometry" />
        </mxCell>
        <mxCell id="1BOe9CULZjDm7H3o84Om-7" style="edgeStyle=orthogonalEdgeStyle;rounded=0;orthogonalLoop=1;jettySize=auto;html=1;" parent="1" source="1BOe9CULZjDm7H3o84Om-2" target="1BOe9CULZjDm7H3o84Om-4" edge="1">
          <mxGeometry relative="1" as="geometry">
            <Array as="points">
              <mxPoint x="710" y="610" />
            </Array>
          </mxGeometry>
        </mxCell>
        <mxCell id="1BOe9CULZjDm7H3o84Om-33" value="Connect" style="edgeLabel;html=1;align=center;verticalAlign=middle;resizable=0;points=[];" parent="1BOe9CULZjDm7H3o84Om-7" vertex="1" connectable="0">
          <mxGeometry x="0.005" y="-3" relative="1" as="geometry">
            <mxPoint as="offset" />
          </mxGeometry>
        </mxCell>
        <mxCell id="1BOe9CULZjDm7H3o84Om-2" value="User" style="shape=umlActor;verticalLabelPosition=bottom;verticalAlign=top;html=1;outlineConnect=0;" parent="1" vertex="1">
          <mxGeometry x="-100" y="577" width="30" height="60" as="geometry" />
        </mxCell>
        <mxCell id="1BOe9CULZjDm7H3o84Om-30" style="edgeStyle=orthogonalEdgeStyle;rounded=0;orthogonalLoop=1;jettySize=auto;html=1;" parent="1" source="1BOe9CULZjDm7H3o84Om-24" target="1BOe9CULZjDm7H3o84Om-25" edge="1">
          <mxGeometry relative="1" as="geometry" />
        </mxCell>
        <mxCell id="1BOe9CULZjDm7H3o84Om-32" value="Push" style="edgeLabel;html=1;align=center;verticalAlign=middle;resizable=0;points=[];" parent="1BOe9CULZjDm7H3o84Om-30" vertex="1" connectable="0">
          <mxGeometry x="0.1077" y="-5" relative="1" as="geometry">
            <mxPoint as="offset" />
          </mxGeometry>
        </mxCell>
        <mxCell id="1BOe9CULZjDm7H3o84Om-24" value="Developer" style="shape=umlActor;verticalLabelPosition=bottom;verticalAlign=top;html=1;outlineConnect=0;" parent="1" vertex="1">
          <mxGeometry x="-100" y="100" width="30" height="60" as="geometry" />
        </mxCell>
        <mxCell id="Crx_YLCkhyTZkr8fELab-1" value="EC2" style="points=[[0,0],[0.25,0],[0.5,0],[0.75,0],[1,0],[1,0.25],[1,0.5],[1,0.75],[1,1],[0.75,1],[0.5,1],[0.25,1],[0,1],[0,0.75],[0,0.5],[0,0.25]];outlineConnect=0;gradientColor=none;html=1;whiteSpace=wrap;fontSize=12;fontStyle=0;container=1;pointerEvents=0;collapsible=0;recursiveResize=0;shape=mxgraph.aws4.group;grIcon=mxgraph.aws4.group_ec2_instance_contents;strokeColor=#D86613;fillColor=none;verticalAlign=top;align=left;spacingLeft=30;fontColor=#D86613;dashed=0;" vertex="1" parent="1">
          <mxGeometry x="500" y="200" width="120" height="260" as="geometry" />
        </mxCell>
      </root>
    </mxGraphModel>
  </diagram>
</mxfile>
